# xmcd CD database file
#
# Track frame offsets:
#	150
#	17900
#	33675
#	53400
#	74150
#	94650
#	113025
#	132000
#	153525
#	173550
#	195825
#	214950
#	229650
#	249825
#	265800
#	284550
#	302175
#	318750
#
# Disc length: 4473 seconds
#
# Revision: 5
# Processed by: cddbd v1.5PL3 Copyright (c) Steve Scherf et al.
# Submitted via: CDex 1.50Beta5
#
DISCID=f6117712
DTITLE=Southern All Stars - Southern All Stars 2000 Disc1
DYEAR=2000
DGENRE=J-pop
TTITLE0=勝手にシンドバッド
TTITLE1=気分しだいで責めないで
TTITLE2=いとしのエリー
TTITLE3=思い過ごしも恋のうち
TTITLE4=C調言葉に御用心
TTITLE5=涙のアベニュー
TTITLE6=恋するマンスリー・デイ
TTITLE7=いなせなロコモーション
TTITLE8=ジャズマン(Jazz Man)
TTITLE9=わすれじのレイド・バック
TTITLE10=シャ・ラ・ラ
TTITLE11=Big Star Blues (ビッグスターの悲劇)
TTITLE12=栞のテーマ
TTITLE13=チャコの海岸物語
TTITLE14=匂艶 The Night Club
TTITLE15=Ya Ya(あの時代(とき)を忘れない)
TTITLE16=ボディ・スペシャル?
TTITLE17=Emanon
EXTD=YEAR: 2000
EXTT0=\t\t\t
EXTT1=ｵ､ﾊｬｼ｡ﾂ隍ﾇﾀﾕ､皃ﾊ､､､ﾇ
EXTT2=
EXTT3=
EXTT4=
EXTT5=
EXTT6=
EXTT7=
EXTT8=
EXTT9=
EXTT10=
EXTT11=
EXTT12=
EXTT13=
EXTT14=
EXTT15=
EXTT16=
EXTT17=
PLAYORDER=
